<?xml version="1.0" encoding="utf-8"?>
<!-- Generator: Adobe Illustrator 15.1.0, SVG Export Plug-In  -->
<!DOCTYPE svg [
	<!ENTITY ns_flows "http://ns.adobe.com/Flows/1.0/">
]>
<svg version="1.2" baseProfile="tiny"
	 xmlns="http://www.w3.org/2000/svg" xmlns:xlink="http://www.w3.org/1999/xlink" xmlns:a="http://ns.adobe.com/AdobeSVGViewerExtensions/3.0/"
	 x="0px" y="0px" width="270px" height="34px" viewBox="0 0 270 34" xml:space="preserve">
<defs>
</defs>
<path fill="#E6270F" d="M28.887,1.042h6.502v20.215c0,2.85,0.452,4.205,0.813,5.02c1.039,2.307,3.132,3.953,5.57,3.928
	c4.736-0.049,5.919-1.58,7.073-2.866V1.042h6.411V32.97c0,0-3.094-0.885-6.578-0.641c-3.605,0.251-5.525,1.58-9.09,1.635
	c-3.386,0.053-5.959-0.949-7.811-2.803c-1.941-1.99-2.89-4.478-2.89-10.312V1.042z"/>
<path fill="#E6270F" d="M1.811,23.8c0.588,1.18,1.177,2.402,2.354,3.582c1.946,1.904,4.617,2.72,7.333,2.72
	c4.526,0,6.744-2.766,6.744-5.485c0-3.445-2.761-4.443-6.654-5.214c-3.621-0.726-10.365-2.085-10.365-9.43
	C1.222,6.438,3.168,0,13.533,0c1.313,0,5.703,0.045,8.464,2.901c1.946,1.995,2.173,4.216,2.309,5.305L22.45,8.704
	c-0.407-0.998-0.769-1.768-1.584-2.583c-1.403-1.361-3.621-2.267-6.382-2.267c-3.621,0-6.835,1.632-6.835,4.941
	c0,0.363,0.045,0.953,0.272,1.541c0.951,2.357,3.395,2.857,6.834,3.537c2.218,0.498,5.522,1.269,7.604,3.355
	c1.539,1.45,2.535,3.671,2.535,6.165c0,2.766-1.177,5.305-2.807,7.026C18.648,34,13.352,34,11.994,34
	c-1.629,0-6.065-0.091-9.097-3.128C0.679,28.696,0.271,26.11,0,24.435L1.811,23.8z"/>
<path fill="#E6270F" d="M59.961,1.042h11.497c3.032,0,8.237,0.091,12.22,3.99C86.621,7.888,88.25,12.558,88.25,17
	c0,4.397-1.494,8.704-4.572,11.831c-3.711,3.719-7.83,4.217-13.352,4.217H59.961V1.042z M70.87,28.651
	c2.715,0,5.476-0.59,7.377-2.541c2.354-2.4,3.168-5.801,3.168-9.155c0-5.123-2.082-8.387-4.254-9.883
	c-2.716-1.858-6.291-1.813-10.727-1.723v23.302H70.87z"/>
<polygon fill="#808083" points="104.082,1.042 101.864,1.042 86.701,33.048 92.314,33.048 102,11.378 111.867,33.048 
	118.747,33.048 "/>
<path fill="#E6270F" d="M122.129,1.042h11.361c3.395,0,5.613,0.409,7.468,1.633c2.58,1.722,3.439,4.624,3.439,6.89
	c0,1.179-0.226,2.993-1.447,4.851c-1.313,1.995-2.807,2.765-4.119,3.445l8.916,15.187h-7.242c0,0-5.033-8.236-8.36-12.569
	c-0.829-1.079-2.567-1.332-3.542-1.022v13.592h-6.473V1.042z M128.602,17.309c1.765-0.046,3.576-0.671,5.34-1.397
	c1.63-0.68,3.803-2.266,3.803-5.349c0-0.726-0.137-3.083-2.399-4.307c-1.313-0.725-2.806-0.815-4.073-0.815
	c-0.86,0-1.856,0.045-2.67,0.045V17.309z"/>
<path fill="#E6270F" d="M150.147,23.8c0.588,1.18,1.176,2.402,2.354,3.582c1.945,1.904,4.615,2.72,7.332,2.72
	c4.526,0,6.744-2.766,6.744-5.485c0-3.445-2.761-4.443-6.653-5.214c-3.622-0.726-10.366-2.085-10.366-9.43
	c0-3.535,1.947-9.973,12.312-9.973c1.313,0,5.704,0.045,8.465,2.901c1.946,1.995,2.172,4.216,2.309,5.305l-1.856,0.498
	c-0.408-0.998-0.77-1.768-1.584-2.583c-1.403-1.361-3.621-2.267-6.382-2.267c-3.621,0-6.834,1.632-6.834,4.941
	c0,0.363,0.045,0.953,0.271,1.541c0.951,2.357,3.395,2.857,6.834,3.537c2.219,0.498,5.523,1.269,7.605,3.355
	c1.538,1.45,2.534,3.671,2.534,6.165c0,2.766-1.177,5.305-2.808,7.026C166.983,34,161.688,34,160.331,34
	c-1.629,0-6.064-0.091-9.098-3.128c-2.219-2.176-2.626-4.762-2.896-6.438L150.147,23.8z"/>
<path fill="#E6270F" d="M177.711,1.042h6.427v13.147h13.443V1.042h6.427v32.006h-6.427V18.542h-13.443v14.506h-6.427V1.042z"/>
<polygon fill="#808083" points="224.285,1.042 222.067,1.042 206.904,33.048 212.517,33.048 222.204,11.378 232.071,33.048 
	238.95,33.048 "/>
<path fill="#E6270F" d="M241.847,1.042h5.749l16.112,18.135c0.453,0.589,0.59,0.771,1.223,1.449V1.042H270v32.369h-1.584
	L247.007,9.475v23.573h-5.16V1.042z"/>
</svg>
